# xmcd
#
# Track frame offsets: 
#        150
#        11091
#        24718
#        36434
#        46360
#        58195
#        68327
#        79987
#        90903
#        103012
#        113095
#        120966
#        130447
#        142411
#        153864
#        164793
#        179478
#        190894
#        205000
#        217007
#        232924
#        244251
#        254383
#        266408
#        279422
#
# Disc length: 4248 seconds
#
# Revision: 1
# Processed by: cddbd v1.5.2PL0 Copyright (c) Steve Scherf et al.
# Submitted via: ExactAudioCopyFreeDBPlugin 1.0
#
DISCID=6b109619
DTITLE=Various Artist - Keeping the Faith:  40 Years of Northern Soul
DTITLE=Various Artist - Memories and Souvenirs [box set]
DYEAR=2007
DGENRE=Soul
TTITLE0=The Swans - Nitty Gritty City
TTITLE1=Dynamic Siblings - I Bear Witness
TTITLE2=The United Four - Baby Don't Do It
TTITLE3=The Fiestas - Think Smart
TTITLE4=Tan Geers - Let My Heart and Soul Be Free
TTITLE5=Ketty Lester - Some Things Are Better Left Unsaid
TTITLE6=Roy Hamilton - Earthquake
TTITLE7=Bunny Sigler - Girl Don't Make Me Wait
TTITLE8=The Poppies - There's a Pain in My Heart
TTITLE9=Johnny Caswell - You Don't Love Me Anymore
TTITLE10=Don Ray - Born a Loser
TTITLE11=Shane Martin - I Need You
TTITLE12=Williams and Watson - A Quitter Never Wins
TTITLE13=The Ivories - Please Stay
TTITLE14=Gigi and the Charmaines - I Don't Want to Lose Him
TTITLE15=Joey Delorenzo - Wake Up to the Sunshine Girl
TTITLE16=Stanley Mitchell - Get it Baby
TTITLE17=The Appointments and Others - I Saw You There
TTITLE18=Chuck Cockerham - Have I Got the Right
TTITLE19=Larry Saunders - On the Real Side
TTITLE20=The Crow - Your Autumn of Tomorrow
TTITLE21=Joe Hicks - Don't it Make You Feel Funky
TTITLE22=Willie Feaster and The Concrete Wall - Voices
TTITLE23=Jimmy James and The Vagabonds - Hey Girl
TTITLE24=Bobby Womack - So Many Sides of You
EXTD=4 x CD Box Set\nKeeping The Faith 40 Years Of Northern Soul\nMemo
EXTD=ries and Souvenirs
EXTT0=
EXTT1=
EXTT2=
EXTT3=
EXTT4=
EXTT5=
EXTT6=
EXTT7=
EXTT8=
EXTT9=
EXTT10=
EXTT11=
EXTT12=
EXTT13=
EXTT14=
EXTT15=
EXTT16=
EXTT17=
EXTT18=
EXTT19=
EXTT20=
EXTT21=
EXTT22=
EXTT23=
EXTT24=
PLAYORDER=
